<svg width="56" height="70" viewBox="0 0 56 70" fill="none" xmlns="http://www.w3.org/2000/svg">
<g clip-path="url(#clip0_40_105)">
<path d="M12 0C5.375 0 0 5.87891 0 13.125V56.875C0 64.1211 5.375 70 12 70H48H52C54.2125 70 56 68.0449 56 65.625C56 63.2051 54.2125 61.25 52 61.25V52.5C54.2125 52.5 56 50.5449 56 48.125V4.375C56 1.95508 54.2125 0 52 0H48H12ZM12 52.5H44V61.25H12C9.7875 61.25 8 59.2949 8 56.875C8 54.4551 9.7875 52.5 12 52.5ZM16 19.6875C16 18.4844 16.9 17.5 18 17.5H42C43.1 17.5 44 18.4844 44 19.6875C44 20.8906 43.1 21.875 42 21.875H18C16.9 21.875 16 20.8906 16 19.6875ZM18 26.25H42C43.1 26.25 44 27.2344 44 28.4375C44 29.6406 43.1 30.625 42 30.625H18C16.9 30.625 16 29.6406 16 28.4375C16 27.2344 16.9 26.25 18 26.25Z" fill="#26333D"/>
</g>
<defs>
<clipPath id="clip0_40_105">
<rect width="56" height="70" fill="white"/>
</clipPath>
</defs>
</svg>
