<svg width="67" height="60" viewBox="0 0 67 60" fill="none" xmlns="http://www.w3.org/2000/svg">
<path d="M19.9083 1.48753C21.2037 2.70537 21.3084 4.77161 20.1438 6.1263L10.7229 17.0733C10.1472 17.7438 9.33591 18.1406 8.47232 18.1543C7.60873 18.1679 6.7844 17.8259 6.16942 17.1964L0.922469 11.7229C-0.294405 10.4367 -0.294405 8.35674 0.922469 7.07047C2.13934 5.78421 4.14129 5.78421 5.35817 7.07047L8.24988 10.0946L15.4595 1.72015C16.6241 0.365463 18.5998 0.255993 19.8952 1.47384L19.9083 1.48753ZM19.9083 23.3814C21.2037 24.5993 21.3084 26.6655 20.1438 28.0202L10.7229 38.9672C10.1472 39.6377 9.33591 40.0345 8.47232 40.0482C7.60873 40.0619 6.7844 39.7198 6.16942 39.0903L0.922469 33.6168C-0.30749 32.3306 -0.30749 30.2507 0.922469 28.9781C2.15243 27.7055 4.14129 27.6918 5.35817 28.9781L8.24988 32.0022L15.4595 23.6277C16.6241 22.2731 18.5998 22.1636 19.8952 23.3814H19.9083ZM29.3162 9.3967C29.3162 6.97469 31.1873 5.01792 33.5033 5.01792H62.8129C65.1289 5.01792 67 6.97469 67 9.3967C67 11.8187 65.1289 13.7755 62.8129 13.7755H33.5033C31.1873 13.7755 29.3162 11.8187 29.3162 9.3967ZM29.3162 31.2906C29.3162 28.8686 31.1873 26.9118 33.5033 26.9118H62.8129C65.1289 26.9118 67 28.8686 67 31.2906C67 33.7126 65.1289 35.6694 62.8129 35.6694H33.5033C31.1873 35.6694 29.3162 33.7126 29.3162 31.2906ZM20.942 53.1845C20.942 50.7625 22.8131 48.8057 25.1291 48.8057H62.8129C65.1289 48.8057 67 50.7625 67 53.1845C67 55.6065 65.1289 57.5633 62.8129 57.5633H25.1291C22.8131 57.5633 20.942 55.6065 20.942 53.1845ZM6.28718 46.6164C7.95291 46.6164 9.55041 47.3084 10.7283 48.5401C11.9061 49.7719 12.5678 51.4425 12.5678 53.1845C12.5678 54.9265 11.9061 56.5972 10.7283 57.8289C9.55041 59.0607 7.95291 59.7527 6.28718 59.7527C4.62145 59.7527 3.02395 59.0607 1.8461 57.8289C0.66825 56.5972 0.00654229 54.9265 0.00654229 53.1845C0.00654229 51.4425 0.66825 49.7719 1.8461 48.5401C3.02395 47.3084 4.62145 46.6164 6.28718 46.6164Z" fill="#26333D"/>
</svg>
