<svg width="66" height="66" viewBox="0 0 66 66" fill="none" xmlns="http://www.w3.org/2000/svg">
<path d="M6.13594 38.7234L29.4293 60.4699C30.3961 61.3722 31.6723 61.875 33 61.875C34.3277 61.875 35.6039 61.3722 36.5707 60.4699L59.8641 38.7234C63.7828 35.0753 66 29.9578 66 24.6082V23.8605C66 14.85 59.4902 7.16715 50.6086 5.68472C44.7305 4.70504 38.7492 6.62574 34.5469 10.8281L33 12.375L31.4531 10.8281C27.2508 6.62574 21.2695 4.70504 15.3914 5.68472C6.50977 7.16715 0 14.85 0 23.8605V24.6082C0 29.9578 2.21719 35.0753 6.13594 38.7234Z" fill="#26333D"/>
</svg>
