<svg width="183" height="69" viewBox="0 0 183 69" fill="none" xmlns="http://www.w3.org/2000/svg">
<path d="M28.8448 12.6363V47.8866C28.8448 50.2489 26.2855 51.7215 24.2418 50.5434L7.67105 40.9777C6.71976 40.4316 6.13672 39.4192 6.13672 38.3209V3.07668C6.13672 0.714383 8.69598 -0.758216 10.7397 0.419863L27.3105 9.98562C28.2618 10.5317 28.8448 11.5441 28.8448 12.6424V12.6363ZM53.0872 0.413727L50.215 2.0704V10.9674C50.215 11.0839 50.1045 11.1698 49.9879 11.1453L48.7297 10.8569C48.6622 10.8446 48.5886 10.8692 48.5456 10.9244L46.9683 12.9124C46.864 13.0474 46.643 12.9738 46.643 12.7958V4.13204L36.5165 9.97948C35.5652 10.5256 34.9821 11.538 34.9821 12.6363V47.8866C34.9821 50.2489 37.5414 51.7215 39.5851 50.5434L56.1559 40.9777C57.1072 40.4316 57.6902 39.4192 57.6902 38.3209V3.07054C57.6902 0.714383 55.131 -0.764352 53.0872 0.413727Z" fill="url(#paint0_linear_84_19)"/>
<path d="M78 21.17H84.87C87.69 21.17 89.21 22.6 89.21 24.68C89.21 26.11 88.42 27.21 86.86 27.74C88.59 28.13 89.58 29.39 89.58 31.06C89.58 33.35 87.78 34.85 84.72 34.85H78V21.17ZM80.97 23.61V26.71H84.18C85.59 26.71 86.15 26.11 86.15 25.17C86.15 24.06 85.36 23.61 84.18 23.61H80.97ZM80.97 29.01V32.41H84.27C85.7 32.41 86.47 31.85 86.47 30.7C86.47 29.63 85.83 29.01 84.27 29.01H80.97Z" fill="#E9F0EF"/>
<path d="M91.6602 34.85V21.17H94.6302V34.85H91.6602Z" fill="#E9F0EF"/>
<path d="M97.3301 21.17H104.2C107.02 21.17 108.54 22.6 108.54 24.68C108.54 26.11 107.75 27.21 106.19 27.74C107.92 28.13 108.91 29.39 108.91 31.06C108.91 33.35 107.11 34.85 104.05 34.85H97.3301V21.17ZM100.29 23.61V26.71H103.5C104.91 26.71 105.47 26.11 105.47 25.17C105.47 24.06 104.68 23.61 103.5 23.61H100.29ZM100.29 29.01V32.41H103.59C105.02 32.41 105.79 31.85 105.79 30.7C105.79 29.63 105.15 29.01 103.59 29.01H100.29Z" fill="#E9F0EF"/>
<path d="M110.99 21.17H113.96V32.34H120.92V34.85H110.99V21.17Z" fill="#E9F0EF"/>
<path d="M122.26 34.85V21.17H125.23V34.85H122.26Z" fill="#E9F0EF"/>
<path d="M127.311 28C127.311 23.72 129.511 21 133.751 21C137.691 21 140.211 23.38 140.211 28C140.211 32.3 138.001 35.04 133.751 35.04C129.811 35.04 127.311 32.64 127.311 28ZM137.091 28C137.091 25.32 136.041 23.65 133.751 23.65C131.701 23.65 130.431 25 130.431 28C130.431 30.68 131.461 32.39 133.751 32.39C135.811 32.39 137.091 31.04 137.091 28Z" fill="#E9F0EF"/>
<path d="M149.391 23.68H145.051V21.17H156.651V23.68H152.351V34.85H149.381V23.68H149.391Z" fill="#E9F0EF"/>
<path d="M158.27 21.17H168.16V23.65H161.23V26.67H167.33V29.11H161.23V32.34H168.72V34.85H158.27V21.17Z" fill="#E9F0EF"/>
<path d="M169.619 28C169.619 23.68 171.889 21 176.099 21C179.649 21 181.859 22.95 182.219 25.88L179.239 26.29C178.979 24.6 177.869 23.64 176.089 23.64C173.949 23.64 172.749 25.1 172.749 27.99C172.749 30.88 173.879 32.38 176.089 32.38C177.909 32.38 179.039 31.42 179.299 29.72L182.279 30.06C181.939 33.23 179.459 35.03 176.069 35.03C172.089 35.03 169.629 32.55 169.629 27.99L169.619 28Z" fill="#E9F0EF"/>
<defs>
<linearGradient id="paint0_linear_84_19" x1="21.4187" y1="59.8453" x2="36.1415" y2="4.89109" gradientUnits="userSpaceOnUse">
<stop stop-color="#4A67DF"/>
<stop offset="0.32" stop-color="#4A67DF"/>
<stop offset="0.94" stop-color="#2FD6CB"/>
<stop offset="1" stop-color="#2FD6CB"/>
</linearGradient>
</defs>
</svg>
